<?xml version="1.0" encoding="utf-8"?>
<!-- Generator: Adobe Illustrator 21.1.0, SVG Export Plug-In . SVG Version: 6.00 Build 0)  -->
<svg version="1.1" id="Layer_1" xmlns="http://www.w3.org/2000/svg" xmlns:xlink="http://www.w3.org/1999/xlink" x="0px" y="0px"
	 viewBox="0 0 100 100" style="enable-background:new 0 0 100 100;" xml:space="preserve">
<style type="text/css">
	.st0{fill:none;stroke:#FFD014;stroke-width:3;stroke-linecap:round;stroke-linejoin:round;stroke-miterlimit:10;}
</style>
<g>
	<path class="st0" d="M71,40.7c0,13.3-9.1,24.1-20.4,24.1c-11.2,0-20.4-10.8-20.4-24.1V8.3H71V40.7z"/>
	<path class="st0" d="M55.4,64v1.4C55.4,74,62.4,81,71,81l0,0V89H55.4h-9.8H30.5V81l0,0c8.6,0,15.1-7,15.1-15.6V64"/>
	<path class="st0" d="M70.7,16.4H87c0,0-0.9,24.4-16.9,31.5"/>
	<path class="st0" d="M30.3,16.4H14c0,0,0.9,24.4,16.9,31.5"/>
</g>
<path class="st0" d="M50.2,19.2L46.4,27l-8.6,1.2c-0.7,0.1-1.1,1-0.5,1.6l6.2,6.1L42,44.5c-0.1,0.7,0.6,1.3,1.3,1l7.9-4l7.5,3.9
	c0.7,0.4,1.5-0.2,1.3-1l-1.5-8.5l6.2-6.1c0.5-0.5,0.2-1.5-0.5-1.6L55.7,27l-3.8-7.8C51.5,18.6,50.5,18.6,50.2,19.2z"/>
</svg>
