<?xml version="1.0" standalone="no"?>
<!DOCTYPE svg PUBLIC "-//W3C//DTD SVG 20010904//EN"
 "http://www.w3.org/TR/2001/REC-SVG-20010904/DTD/svg10.dtd">
<svg version="1.0" xmlns="http://www.w3.org/2000/svg"
 width="435.000000pt" height="357.000000pt" viewBox="0 0 435.000000 357.000000"
 preserveAspectRatio="xMidYMid meet">

<g transform="translate(0.000000,357.000000) scale(0.100000,-0.100000)"
fill="#000000" stroke="none">
<path d="M1697 3526 c-15 -32 -21 -36 -54 -36 l-38 0 32 -26 c28 -22 31 -28
23 -50 -16 -40 -12 -44 20 -26 28 16 31 16 61 -2 l32 -19 -7 37 c-6 33 -4 40
21 59 l28 22 -39 5 c-34 4 -41 10 -50 38 l-12 33 -17 -35z"/>
<path d="M3907 3450 c-3 -8 -9 -37 -12 -65 -8 -55 -38 -123 -60 -131 -7 -3
-47 -1 -87 5 -197 30 -382 16 -648 -51 -303 -75 -695 -241 -1033 -437 l-102
-59 -190 -16 c-267 -24 -596 -87 -803 -155 -342 -113 -575 -243 -753 -420 -79
-79 -103 -111 -137 -181 -23 -47 -44 -98 -47 -115 -5 -26 -3 -25 9 8 88 225
275 400 597 557 390 190 947 304 1514 309 110 1 214 -14 234 -34 3 -4 5 -39 4
-78 l-3 -72 23 26 c12 14 33 40 47 58 l25 33 68 -26 c37 -14 67 -23 67 -20 0
3 -14 25 -30 50 -37 52 -45 50 128 29 367 -46 782 -161 1017 -284 132 -69 245
-139 245 -152 0 -20 -108 -179 -219 -323 -313 -406 -841 -861 -1357 -1170
l-111 -66 -159 0 c-391 0 -861 74 -1194 187 -408 138 -678 315 -821 536 -63
97 -81 157 -87 287 -4 76 -8 105 -13 85 -13 -58 -9 -141 12 -215 31 -113 87
-200 205 -318 l103 -103 -20 -47 c-11 -26 -26 -60 -34 -77 -32 -72 -54 -147
-71 -243 -22 -130 -12 -227 35 -329 l32 -68 -21 -17 c-12 -10 -38 -20 -58 -23
-63 -11 -70 -17 -28 -26 105 -24 147 -73 168 -199 l12 -75 12 72 c7 39 20 88
30 108 19 42 19 42 127 1 220 -84 616 -44 1032 104 185 65 471 196 706 322 40
22 63 26 185 31 470 22 922 130 1289 307 300 145 519 356 583 560 27 87 23
247 -9 331 -37 96 -110 198 -212 295 l-90 86 47 95 c162 327 164 610 6 770
-22 23 -40 46 -40 52 0 6 18 14 40 17 50 8 60 21 23 30 -53 11 -61 15 -87 35
-37 29 -57 72 -71 153 -7 39 -15 64 -18 56z m-222 -201 c120 -14 132 -27 40
-41 -31 -5 -20 -22 18 -29 90 -15 143 -84 154 -202 6 -71 23 -92 23 -29 1 81
44 192 76 192 23 0 98 -88 128 -150 30 -64 31 -68 30 -210 0 -140 -2 -149 -36
-252 -28 -81 -106 -256 -123 -276 -1 -1 -33 19 -71 44 -168 113 -468 233 -769
308 -165 42 -258 58 -457 82 -82 10 -148 20 -148 23 0 4 18 28 40 56 21 27 37
51 35 53 -1 2 -27 -4 -56 -12 -29 -9 -60 -16 -69 -16 -10 0 -35 26 -56 58
l-39 57 -5 -74 -5 -74 -61 -18 c-71 -19 -304 -30 -304 -14 0 19 397 224 580
300 278 114 493 177 710 209 196 29 237 31 365 15z m434 -1136 c89 -90 114
-122 149 -193 88 -178 77 -362 -31 -526 -51 -78 -206 -232 -287 -285 -250
-165 -597 -294 -1005 -373 -169 -33 -571 -70 -581 -54 -3 4 16 20 41 35 617
367 1249 947 1530 1406 33 53 64 97 69 97 5 0 57 -48 115 -107z m-3714 -1023
c66 -45 260 -148 350 -185 252 -104 602 -191 905 -224 132 -15 378 -31 483
-31 48 0 87 -4 87 -8 0 -6 -232 -126 -390 -202 -51 -24 -261 -104 -354 -135
-337 -110 -624 -147 -846 -111 -98 16 -185 48 -185 67 0 7 21 19 48 27 26 7
47 17 47 22 0 4 -18 11 -40 15 -46 8 -93 43 -115 86 -8 15 -20 59 -27 98 -7
39 -13 69 -15 67 -2 -2 -8 -32 -14 -66 -10 -64 -33 -120 -48 -120 -4 0 -21 28
-37 62 -50 111 -46 287 11 459 28 86 81 209 90 209 4 0 26 -13 50 -30z"/>
<path d="M1398 3166 c3 -26 -1 -37 -19 -50 l-23 -16 30 0 c24 0 32 -6 42 -32
l13 -33 14 33 c12 28 18 32 40 26 30 -8 32 2 4 25 -17 14 -19 21 -10 44 12 30
1 36 -23 12 -19 -20 -26 -19 -51 5 l-21 20 4 -34z"/>
<path d="M1716 2977 c-3 -12 -6 -34 -6 -49 0 -29 -1 -29 -85 -44 l-40 -6 53
-27 c52 -25 53 -27 47 -61 -3 -19 -8 -43 -11 -52 -8 -27 9 -22 41 12 34 35 43
36 95 10 22 -11 42 -20 45 -20 3 0 -7 23 -21 51 l-27 50 39 41 39 40 -56 -7
-55 -7 -19 42 c-23 50 -31 56 -39 27z"/>
<path d="M2215 2370 c-12 -37 -32 -49 -67 -39 -41 11 -47 5 -20 -24 26 -28 28
-54 5 -79 -23 -26 -10 -32 28 -12 l33 17 28 -32 c15 -17 29 -31 32 -31 2 0 1
19 -1 43 -5 41 -4 43 31 55 41 15 47 32 12 32 -45 0 -56 10 -56 51 0 41 -14
52 -25 19z"/>
<path d="M1724 2258 c-77 -61 -218 -175 -314 -253 -96 -78 -233 -188 -305
-246 -71 -57 -135 -108 -141 -114 -6 -6 -34 -28 -62 -50 -47 -35 -52 -43 -52
-77 0 -21 4 -38 8 -38 5 0 71 46 148 102 76 55 171 124 209 151 39 27 86 63
106 78 l36 28 324 -108 c178 -59 342 -118 364 -131 44 -24 70 -46 45 -38 -61
20 -158 49 -225 67 -44 12 -173 46 -288 77 l-208 55 -167 -120 c-414 -298
-467 -338 -467 -351 0 -9 35 -23 110 -42 61 -16 205 -54 320 -84 116 -30 257
-66 315 -80 73 -18 111 -33 126 -49 43 -47 74 -59 143 -58 53 0 83 8 151 38
517 227 641 288 702 349 38 37 93 78 298 221 30 21 114 80 185 130 72 50 156
109 188 130 31 21 57 44 57 51 0 8 -2 14 -4 14 -6 0 -80 -40 -256 -138 -153
-85 -270 -145 -275 -140 -5 4 173 122 403 267 29 19 51 36 48 38 -2 2 -40 -14
-84 -36 -107 -54 -119 -38 -32 41 35 31 62 59 59 61 -2 1 -20 15 -40 29 l-36
27 -162 -95 c-90 -51 -165 -94 -168 -94 -25 0 162 136 282 206 17 9 15 13 -18
38 l-37 28 -65 -36 c-98 -56 -198 -139 -327 -277 -65 -68 -118 -117 -118 -108
0 67 117 323 217 474 82 125 82 124 37 88 -88 -70 -263 -270 -394 -450 -25
-34 -51 -63 -57 -63 -20 0 -202 138 -260 197 -78 80 -163 269 -163 365 0 15
-4 29 -9 32 -5 3 -71 -44 -147 -106z"/>
</g>
</svg>
