<?xml version="1.0" encoding="utf-8"?>
<!-- Generator: Adobe Illustrator 21.1.0, SVG Export Plug-In . SVG Version: 6.00 Build 0)  -->
<svg version="1.1" id="Layer_1" xmlns="http://www.w3.org/2000/svg" xmlns:xlink="http://www.w3.org/1999/xlink" x="0px" y="0px"
	 viewBox="0 0 100 100" style="enable-background:new 0 0 100 100;" xml:space="preserve">
<style type="text/css">
	.st0{fill:none;stroke:#FFD014;stroke-width:3;stroke-linecap:round;stroke-linejoin:round;stroke-miterlimit:10;}
	.st1{fill:none;stroke:#FFD014;stroke-width:2;stroke-linecap:round;stroke-linejoin:round;stroke-miterlimit:10;}
</style>
<rect x="15.4" y="32.9" class="st0" width="16.6" height="45.3"/>
<path class="st0" d="M32,37.5c0,0,13.9-9,13.2-17.6c-0.7-8.6,3.7-9.5,6.3-8.5c2.6,1.1,7.6,5.2,8,13.5c0.4,7.3-2.9,10.1-2.9,10.1H73
	h5.8c3.4,0,6.1,2.5,6.1,5.5l0,0c0,3.1-2.7,5.6-6.1,5.6"/>
<path class="st1" d="M74.8,46.3h5.7c3.6,0,6.5,2.8,6.5,6.2l0,0c0,3.4-2.9,6.2-6.5,6.2h-6.8"/>
<path class="st1" d="M72.3,58.6h4.6c3.6,0,6.5,2.8,6.5,6.2l0,0c0,3.4-2.9,6.2-6.5,6.2h-4.6"/>
<path class="st1" d="M67.4,71h4.9c3.6,0,6.5,2.8,6.5,6.2l0,0c0,3.4-2.9,6.2-6.5,6.2l-13.9-0.1C50.1,83,31,75.8,31,75.8"/>
</svg>
